<?xml version="1.0" encoding="UTF-8"?>
<!DOCTYPE svg PUBLIC "-//W3C//DTD SVG 1.1//EN" "http://www.w3.org/Graphics/SVG/1.1/DTD/svg11.dtd">
<!-- Creator: CorelDRAW 2018 (64-Bit) -->
<svg xmlns="http://www.w3.org/2000/svg" xml:space="preserve" width="30cm" height="30cm" version="1.1" style="shape-rendering:geometricPrecision; text-rendering:geometricPrecision; image-rendering:optimizeQuality; fill-rule:evenodd; clip-rule:evenodd"
viewBox="0 0 30000 30000"
 xmlns:xlink="http://www.w3.org/1999/xlink">
 <defs>
  <style type="text/css">
   <![CDATA[
    .fil0 {fill:#2B2A29}
    .fil1 {fill:#009846}
    .fil2 {fill:#2B2A29;fill-rule:nonzero}
   ]]>
  </style>
 </defs>
 <g id="Layer_x0020_1">
  <metadata id="CorelCorpID_0Corel-Layer"/>
  <polygon class="fil0" points="6805.83,12184.65 4001.97,12184.65 4001.97,12218.08 4001.59,12218.08 4001.59,13873.16 4000.01,13873.16 4000.01,14611.57 4001.59,14611.57 4001.59,17383.28 4740.02,17383.28 4740.02,14611.57 6803.87,14611.57 6803.87,13873.16 4740.02,13873.16 4740.02,12923.06 6805.83,12923.06 "/>
  <polygon class="fil0" points="7543.6,12184.44 7543.6,12817.26 7543.6,17384.83 8282.02,17384.83 8282.02,12184.44 "/>
  <polygon class="fil0" points="10057.36,12923.06 10057.36,17383.7 10795.79,17383.7 10795.79,12923.06 11823.67,12923.06 11823.67,12184.65 9019.81,12184.65 9019.81,12923.06 "/>
  <polygon class="fil0" points="12543.81,12923.06 12543.81,13879.3 12331.36,13879.3 12331.36,14617.71 12543.81,14617.71 12543.81,16642.13 12543.62,16642.13 12543.62,17380.56 15347.47,17380.56 15347.47,16642.13 13282.24,16642.13 13282.24,14617.71 15341.59,14617.71 15341.59,13879.3 13282.24,13879.3 13282.24,12923.06 15347.47,12923.06 15347.47,12184.65 12543.62,12184.65 12543.62,12923.06 "/>
  <circle class="fil1" cx="18667.75" cy="14789.37" r="2600.05"/>
  <polygon class="fil0" points="21989.16,12210.64 21989.16,17383.89 22727.57,17383.89 22727.57,13258.75 24047.18,14627.56 24047.18,17384.26 24785.61,17384.26 24785.61,14737.15 24989.25,14540.83 24785.61,14329.59 24785.61,12204.17 24047.18,12204.17 24047.18,13563.64 22735.53,12203.08 22727.57,12210.75 22727.57,12210.64 "/>
  <path class="fil2" d="M5196.77 19216.44c-34.94,12.84 -66.96,24.86 -95.38,36.06 -28.09,11.21 -65.32,22.68 -111.39,34.98 -38.86,10.11 -81,18.85 -126.73,25.95 -45.73,7.38 -95.71,10.93 -150.58,10.93 -103.55,0 -197.3,-12.02 -281.89,-36.34 -84.6,-24.31 -158.1,-62.29 -220.48,-114.2 -61.42,-50.55 -109.11,-115.03 -143.73,-193.17 -34.3,-78.14 -51.61,-168.85 -51.61,-272.4 0,-98.09 16.66,-185.79 49.65,-263.11 33.32,-77.32 81.01,-142.62 143.73,-195.9 60.42,-51.91 133.6,-91.25 219.49,-118.58 85.92,-27.05 180.97,-40.71 285.82,-40.71 76.43,0 152.87,7.65 228.98,23.23 76.43,15.57 161.03,42.89 254.12,81.69l0 188.52 -14.37 0c-78.39,-54.37 -156.14,-93.71 -233.22,-118.58 -77.09,-24.86 -159.73,-37.15 -247.6,-37.15 -72.18,0 -136.86,9.56 -194.68,28.96 -57.81,19.4 -109.09,49.72 -154.49,90.71 -43.77,39.61 -78.07,90.16 -102.57,151.09 -24.5,60.65 -36.92,130.87 -36.92,210.65 0,83.61 13.4,155.19 40.51,215.3 27.11,60.11 62.06,109.01 104.86,146.72 44.75,39.34 96.68,68.3 156.13,87.15 59.77,18.86 122.82,28.42 189.12,28.42 91.14,0 176.39,-13.12 256.09,-39.07 79.7,-25.96 154.17,-64.76 223.75,-116.67l13.39 0 0 185.52z"/>
  <path id="1" class="fil2" d="M6361.25 18856.61c0,145.62 -44.75,260.38 -133.92,344.8 -89.18,84.15 -208.73,126.23 -358.32,126.23 -151.24,0 -271.12,-42.08 -360.29,-126.23 -88.85,-84.42 -133.28,-199.18 -133.28,-344.8 0,-145.35 44.43,-260.38 133.28,-344.81 89.17,-84.42 209.05,-126.77 360.29,-126.77 149.59,0 269.14,42.35 358.32,126.77 89.17,84.43 133.92,199.46 133.92,344.81zm-186.18 0c0,-115.03 -27.11,-200.54 -81.01,-256.55 -54.23,-56.02 -129.02,-83.88 -225.05,-83.88 -97.34,0 -173.13,27.86 -226.69,83.88 -53.91,56.01 -80.69,141.52 -80.69,256.55 0,111.47 27.12,195.9 81.01,253.55 54.22,57.65 129.68,86.33 226.37,86.33 95.37,0 170.18,-28.41 224.4,-85.51 54.55,-57.11 81.66,-141.8 81.66,-254.37z"/>
  <path id="2" class="fil2" d="M7535.21 19303.05l-180.31 0 0 -509.01c0,-40.98 -2.94,-79.51 -8.48,-115.57 -5.89,-36.07 -16.34,-64.21 -31.7,-84.43 -15.99,-22.4 -39.19,-39.07 -69.24,-50 -30.05,-10.92 -68.93,-16.39 -116.94,-16.39 -48.99,0 -100.6,10.11 -154.17,30.33 -53.9,20.22 -105.19,46.17 -154.5,77.59l0 667.48 -180.31 0 0 -893.43 180.31 0 0 99.45c56.18,-39.07 114.32,-69.4 174.43,-91.25 60.1,-21.86 121.83,-32.79 185.2,-32.79 115.63,0 203.82,28.96 264.58,87.16 60.75,58.19 91.13,141.8 91.13,251.09l0 579.77z"/>
  <path id="3" class="fil2" d="M8644.16 19043.76c0,81.42 -40.17,148.36 -120.85,200.55 -80.68,52.18 -190.76,78.41 -330.57,78.41 -79.05,0 -151.55,-7.92 -217.54,-23.5 -65.98,-15.84 -121.19,-33.05 -165.94,-51.91l0 -168.85 9.48 0c56.51,36.07 119.56,64.76 188.8,86.07 69.25,21.31 135.55,31.96 198.93,31.96 78.71,0 140.45,-10.65 184.87,-32.24 44.43,-21.31 66.64,-55.19 66.64,-101.36 0,-35.25 -12.08,-61.75 -36.26,-79.78 -24.17,-18.31 -70.55,-33.61 -139.15,-46.45 -25.47,-4.92 -58.79,-10.38 -99.62,-16.94 -41.16,-6.28 -78.4,-13.11 -112.37,-20.76 -93.42,-20.77 -159.73,-51.09 -198.6,-91.53 -39.19,-40.16 -58.79,-89.62 -58.79,-148.09 0,-36.88 9.14,-71.58 27.43,-104.09 17.97,-32.52 45.73,-61.48 82.97,-87.16 35.61,-24.86 81.01,-44.81 136.54,-59.56 55.2,-14.48 116.94,-21.86 185.2,-21.86 64.02,0 128.7,6.56 194.36,19.67 65.32,12.84 119.88,28.69 163.32,47.54l0 160.66 -9.48 0c-46.05,-28.42 -101.58,-52.46 -167.23,-72.13 -65.66,-19.68 -130.01,-29.51 -193.05,-29.51 -65.33,0 -120.86,10.65 -165.93,31.69 -45.41,21.31 -67.94,52.73 -67.94,94.81 0,36.61 13.71,64.48 41.15,83.06 26.45,18.58 69.9,33.88 129.68,45.63 32.99,6.28 69.9,12.56 111.06,19.12 40.83,6.28 75.13,12.3 102.57,17.49 83.29,16.12 147.31,43.44 192.71,82.24 45.08,39.61 67.61,91.8 67.61,156.82z"/>
  <path id="4" class="fil2" d="M9455.56 19295.4c-33.66,7.65 -70.56,13.66 -110.41,18.58 -39.85,4.64 -75.46,7.1 -106.49,7.1 -109.1,0 -192.07,-24.59 -248.57,-73.77 -56.84,-48.9 -85.26,-127.59 -85.26,-236.06l0 -475.4 -121.51 0 0 -126.23 121.51 0 0 -257.37 180.3 0 0 257.37 370.43 0 0 126.23 -370.43 0 0 407.92c0,46.99 1.32,83.87 3.92,110.38 2.3,26.5 11.45,51.09 26.8,74.04 13.71,21.31 32.98,37.16 57.48,46.99 24.51,9.84 62.07,14.76 112.36,14.76 29.08,0 59.78,-3.83 91.46,-11.21 32.02,-7.37 54.88,-13.38 68.92,-18.3l9.49 0 0 134.97z"/>
  <path id="5" class="fil2" d="M10341.41 18573.55l-9.48 0c-27.11,-5.19 -52.92,-9.01 -78.4,-11.2 -25.15,-2.46 -54.87,-3.55 -89.49,-3.55 -55.53,0 -109.43,10.38 -161.04,30.87 -51.93,20.49 -101.58,47 -149.6,79.51l0 633.87 -180.31 0 0 -893.43 180.31 0 0 131.97c71.53,-48.09 134.57,-81.97 189.45,-101.92 54.55,-19.94 110.4,-30.05 167.24,-30.05 31.36,0 53.89,0.55 67.94,1.91 14.05,1.37 35.28,3.83 63.38,7.65l0 154.37z"/>
  <path id="6" class="fil2" d="M11397.44 19303.05l-180.31 0 0 -99.45c-60.76,40.16 -118.89,70.76 -174.43,92.07 -55.85,21.31 -116.93,31.97 -184.22,31.97 -112.36,0 -200.23,-28.69 -262.62,-86.06 -62.71,-57.11 -94.07,-141.26 -94.07,-252.19l0 -579.77 180.31 0 0 509.01c0,45.35 2.6,84.15 7.5,116.39 5.23,32.24 16.01,59.84 32.67,82.79 17.32,23.49 39.85,40.43 67.29,51.09 27.44,10.65 67.29,16.12 119.88,16.12 46.71,0 97.66,-10.11 152.87,-30.33 55.2,-20.22 106.81,-46.17 154.82,-77.59l0 -667.48 180.31 0 0 893.43z"/>
  <path id="7" class="fil2" d="M12541.67 19247.04c-59.78,23.77 -116.94,42.35 -170.83,55.74 -53.57,13.38 -111.05,19.94 -171.49,19.94 -77.08,0 -147.97,-9.56 -212.31,-28.41 -64.36,-18.86 -119.55,-47.54 -165.28,-86.07 -46.71,-38.25 -82.65,-86.88 -108.13,-145.62 -25.47,-58.47 -38.22,-127.05 -38.22,-205.46 0,-146.18 48.03,-260.93 144.05,-343.99 95.72,-83.33 222.45,-124.86 379.89,-124.86 61.08,0 121.18,7.1 180.31,21.58 58.8,14.21 113.02,31.97 162.01,52.74l0 166.66 -9.47 0c-54.87,-35.25 -111.39,-62.29 -169.85,-81.42 -58.47,-18.85 -115.31,-28.41 -170.84,-28.41 -101.91,0 -182.59,28.68 -241.39,85.79 -59.12,57.1 -88.52,141.25 -88.52,251.91 0,107.37 28.75,190.16 86.56,247.81 57.82,57.64 138.83,86.61 243.35,86.61 36.58,0 73.5,-3.83 111.07,-11.75 37.56,-7.93 71.52,-18.31 101.26,-30.88 26.12,-11.2 50.95,-22.95 73.81,-35.24 22.87,-12.3 41.16,-22.95 54.55,-31.97l9.47 0 0 165.3z"/>
  <path id="8" class="fil2" d="M13325.63 19295.4c-33.66,7.65 -70.56,13.66 -110.41,18.58 -39.85,4.64 -75.46,7.1 -106.49,7.1 -109.1,0 -192.07,-24.59 -248.57,-73.77 -56.84,-48.9 -85.26,-127.59 -85.26,-236.06l0 -475.4 -121.51 0 0 -126.23 121.51 0 0 -257.37 180.3 0 0 257.37 370.43 0 0 126.23 -370.43 0 0 407.92c0,46.99 1.32,83.87 3.92,110.38 2.3,26.5 11.45,51.09 26.8,74.04 13.71,21.31 32.98,37.16 57.48,46.99 24.51,9.84 62.07,14.76 112.36,14.76 29.08,0 59.78,-3.83 91.46,-11.21 32.02,-7.37 54.88,-13.38 68.92,-18.3l9.49 0 0 134.97z"/>
  <path id="9" class="fil2" d="M13735.23 18258.8l-203.83 0 0 -155.73 203.83 0 0 155.73zm-11.76 1044.25l-180.31 0 0 -893.43 180.31 0 0 893.43z"/>
  <path id="10" class="fil2" d="M14992.14 18856.61c0,145.62 -44.74,260.38 -133.92,344.8 -89.17,84.15 -208.73,126.23 -358.32,126.23 -151.24,0 -271.11,-42.08 -360.29,-126.23 -88.85,-84.42 -133.27,-199.18 -133.27,-344.8 0,-145.35 44.42,-260.38 133.27,-344.81 89.18,-84.42 209.05,-126.77 360.29,-126.77 149.59,0 269.15,42.35 358.32,126.77 89.18,84.43 133.92,199.46 133.92,344.81zm-186.18 0c0,-115.03 -27.11,-200.54 -81,-256.55 -54.23,-56.02 -129.03,-83.88 -225.06,-83.88 -97.34,0 -173.13,27.86 -226.69,83.88 -53.9,56.01 -80.68,141.52 -80.68,256.55 0,111.47 27.11,195.9 81.01,253.55 54.21,57.65 129.68,86.33 226.36,86.33 95.38,0 170.18,-28.41 224.4,-85.51 54.55,-57.11 81.66,-141.8 81.66,-254.37z"/>
  <path id="11" class="fil2" d="M16166.11 19303.05l-180.31 0 0 -509.01c0,-40.98 -2.94,-79.51 -8.49,-115.57 -5.88,-36.07 -16.33,-64.21 -31.7,-84.43 -15.99,-22.4 -39.18,-39.07 -69.24,-50 -30.04,-10.92 -68.92,-16.39 -116.94,-16.39 -48.99,0 -100.6,10.11 -154.17,30.33 -53.9,20.22 -105.18,46.17 -154.5,77.59l0 667.48 -180.31 0 0 -893.43 180.31 0 0 99.45c56.18,-39.07 114.32,-69.4 174.43,-91.25 60.1,-21.86 121.84,-32.79 185.2,-32.79 115.63,0 203.82,28.96 264.58,87.16 60.76,58.19 91.14,141.8 91.14,251.09l0 579.77z"/>
  <path id="12" class="fil2" d="M18248.12 18962.89c0,46.18 -13.06,92.08 -38.87,137.43 -25.8,45.36 -61.73,83.88 -108.44,115.3 -50.96,34.15 -110.41,60.65 -178.35,80.05 -67.61,19.13 -149.6,28.69 -244.98,28.69 -102.56,0 -195,-7.92 -276.99,-24.04 -81.67,-15.85 -164.96,-39.62 -249.88,-71.04l0 -198.36 13.39 0c71.86,49.73 154.82,88.25 249.22,115.3 94.08,27.05 182.59,40.44 265.56,40.44 116.95,0 208.41,-18.31 273.41,-54.92 65.32,-36.61 97.99,-85.52 97.99,-146.72 0,-52.73 -15.36,-91.53 -46.38,-116.66 -30.71,-25.14 -77.74,-44.54 -140.78,-58.47 -48.02,-10.66 -99.63,-19.4 -155.48,-26.23 -55.86,-7.1 -114.99,-15.85 -177.37,-26.5 -126.09,-22.41 -219.51,-60.66 -280.59,-114.76 -60.76,-54.09 -91.14,-124.58 -91.14,-211.74 0,-99.73 50.31,-181.42 151.24,-245.08 100.94,-63.66 228.65,-95.63 383.81,-95.63 100.28,0 192.06,7.93 275.69,24.05 83.61,15.84 157.76,35.79 222.1,59.29l0 187.15 -13.39 0c-54.21,-38.25 -125.42,-69.94 -213.61,-95.08 -88.53,-25.14 -178.68,-37.7 -271.13,-37.7 -101.58,0 -182.91,17.48 -244.31,52.45 -61.74,35.25 -92.45,80.33 -92.45,135.52 0,49.45 15.36,88.52 45.74,116.67 30.7,28.41 84.59,50 161.68,64.75 40.83,7.65 98.64,16.67 173.77,27.32 75.46,10.66 139.15,21.59 191.42,32.79 105.82,23.49 185.2,59.01 238.77,106.28 53.57,47.54 80.35,113.93 80.35,199.45z"/>
  <path id="13" class="fil2" d="M19450.82 18856.61c0,145.62 -44.75,260.38 -133.92,344.8 -89.18,84.15 -208.73,126.23 -358.33,126.23 -151.23,0 -271.11,-42.08 -360.28,-126.23 -88.85,-84.42 -133.28,-199.18 -133.28,-344.8 0,-145.35 44.43,-260.38 133.28,-344.81 89.17,-84.42 209.05,-126.77 360.28,-126.77 149.6,0 269.15,42.35 358.33,126.77 89.17,84.43 133.92,199.46 133.92,344.81zm-186.18 0c0,-115.03 -27.11,-200.54 -81.01,-256.55 -54.23,-56.02 -129.02,-83.88 -225.06,-83.88 -97.34,0 -173.12,27.86 -226.68,83.88 -53.91,56.01 -80.69,141.52 -80.69,256.55 0,111.47 27.12,195.9 81.01,253.55 54.22,57.65 129.68,86.33 226.36,86.33 95.38,0 170.19,-28.41 224.4,-85.51 54.56,-57.11 81.67,-141.8 81.67,-254.37z"/>
  <polygon id="14" class="fil2" points="19909.44,19303.05 19729.13,19303.05 19729.13,18057.17 19909.44,18057.17 "/>
  <path id="15" class="fil2" d="M21154.59 19303.05l-180.31 0 0 -99.45c-60.75,40.16 -118.89,70.76 -174.42,92.07 -55.86,21.31 -116.94,31.97 -184.22,31.97 -112.37,0 -200.24,-28.69 -262.63,-86.06 -62.71,-57.11 -94.07,-141.26 -94.07,-252.19l0 -579.77 180.31 0 0 509.01c0,45.35 2.6,84.15 7.51,116.39 5.22,32.24 16,59.84 32.66,82.79 17.32,23.49 39.86,40.43 67.29,51.09 27.44,10.65 67.29,16.12 119.88,16.12 46.71,0 97.66,-10.11 152.87,-30.33 55.2,-20.22 106.81,-46.17 154.82,-77.59l0 -667.48 180.31 0 0 893.43z"/>
  <path id="16" class="fil2" d="M22061.69 19295.4c-33.66,7.65 -70.56,13.66 -110.41,18.58 -39.85,4.64 -75.46,7.1 -106.48,7.1 -109.11,0 -192.08,-24.59 -248.58,-73.77 -56.83,-48.9 -85.25,-127.59 -85.25,-236.06l0 -475.4 -121.52 0 0 -126.23 121.52 0 0 -257.37 180.3 0 0 257.37 370.42 0 0 126.23 -370.42 0 0 407.92c0,46.99 1.31,83.87 3.92,110.38 2.29,26.5 11.44,51.09 26.79,74.04 13.71,21.31 32.98,37.16 57.48,46.99 24.51,9.84 62.07,14.76 112.37,14.76 29.07,0 59.77,-3.83 91.46,-11.21 32.01,-7.37 54.87,-13.38 68.92,-18.3l9.48 0 0 134.97z"/>
  <path id="17" class="fil2" d="M22471.29 18258.8l-203.83 0 0 -155.73 203.83 0 0 155.73zm-11.75 1044.25l-180.31 0 0 -893.43 180.31 0 0 893.43z"/>
  <path id="18" class="fil2" d="M23728.21 18856.61c0,145.62 -44.75,260.38 -133.93,344.8 -89.17,84.15 -208.72,126.23 -358.32,126.23 -151.23,0 -271.11,-42.08 -360.28,-126.23 -88.86,-84.42 -133.28,-199.18 -133.28,-344.8 0,-145.35 44.42,-260.38 133.28,-344.81 89.17,-84.42 209.05,-126.77 360.28,-126.77 149.6,0 269.15,42.35 358.32,126.77 89.18,84.43 133.93,199.46 133.93,344.81zm-186.18 0c0,-115.03 -27.12,-200.54 -81.01,-256.55 -54.23,-56.02 -129.02,-83.88 -225.06,-83.88 -97.34,0 -173.12,27.86 -226.68,83.88 -53.91,56.01 -80.69,141.52 -80.69,256.55 0,111.47 27.11,195.9 81.01,253.55 54.22,57.65 129.68,86.33 226.36,86.33 95.38,0 170.18,-28.41 224.4,-85.51 54.55,-57.11 81.67,-141.8 81.67,-254.37z"/>
  <path id="19" class="fil2" d="M24902.17 19303.05l-180.31 0 0 -509.01c0,-40.98 -2.94,-79.51 -8.49,-115.57 -5.88,-36.07 -16.33,-64.21 -31.69,-84.43 -16,-22.4 -39.19,-39.07 -69.25,-50 -30.04,-10.92 -68.92,-16.39 -116.93,-16.39 -48.99,0 -100.61,10.11 -154.18,30.33 -53.89,20.22 -105.18,46.17 -154.5,77.59l0 667.48 -180.31 0 0 -893.43 180.31 0 0 99.45c56.18,-39.07 114.32,-69.4 174.43,-91.25 60.1,-21.86 121.84,-32.79 185.2,-32.79 115.63,0 203.83,28.96 264.58,87.16 60.76,58.19 91.14,141.8 91.14,251.09l0 579.77z"/>
  <path class="fil2" d="M26000 11106.04c0,119.58 -42.43,221.89 -127.11,306.57 -84.69,84.69 -186.99,127.12 -306.58,127.12 -119.58,0 -221.89,-42.43 -306.57,-127.12 -84.69,-84.68 -127.11,-186.99 -127.11,-306.57 0,-119.59 42.42,-221.89 127.11,-306.58 84.68,-84.68 186.99,-127.11 306.57,-127.11 119.59,0 221.89,42.43 306.58,127.11 84.68,84.69 127.11,186.99 127.11,306.58zm-58.51 0c0,-103.67 -36.61,-192.64 -110,-266.89 -73.22,-74.24 -161.67,-111.37 -265.18,-111.37 -103.5,0 -191.95,37.13 -265.17,111.37 -73.39,74.25 -110.01,163.22 -110.01,266.89 0,103.67 36.62,192.64 110.01,266.88 73.22,74.25 161.67,111.38 265.17,111.38 103.51,0 191.96,-37.13 265.18,-111.38 73.39,-74.24 110,-163.21 110,-266.88zm-96.49 220.18l-112.4 0 -165.43 -177.58 -80.41 0 0 177.58 -83.14 0 0 -458.84 156.36 0c31.31,0 57.14,1.37 77.5,3.94 20.36,2.74 40.55,9.24 60.22,19.67 21.05,11.29 36.44,25.15 46.37,41.4 9.75,16.26 14.71,36.61 14.71,60.91 0,32.5 -9.41,59.53 -28.23,81.09 -18.82,21.73 -44.65,38.83 -77.67,51.49l192.12 200.34zm-176.55 -327.45c0,-12.14 -2.4,-22.75 -7.02,-32.16 -4.62,-9.41 -12.49,-17.11 -23.43,-23.1 -10.27,-5.64 -21.22,-9.41 -33.02,-10.95 -11.64,-1.71 -26.18,-2.56 -43.8,-2.56l-74.42 0 0 155 63.47 0c20.53,0 38.32,-1.54 53.38,-4.79 14.88,-3.08 27.2,-8.56 36.95,-16.26 10.27,-8.38 17.45,-17.62 21.73,-27.54 4.11,-10.09 6.16,-22.58 6.16,-37.64z"/>
 </g>
</svg>
